mtllib chr_phantom_spin.mtl

v -0.372803 -0.216553 4.697510
v -0.214600 -0.374023 4.697510
v 0.000000 0.000000 5.621826
v -1.193359 0.316650 3.523193
v -0.875244 0.870850 3.523193
v 0.000000 1.488770 2.348633
v 0.744385 1.289307 2.348633
v 1.917236 1.106934 1.174316
v 2.213867 0.000000 1.174316
v 2.153320 -1.243164 0.000000
v 1.248535 -2.149902 0.000000
v 1.695557 -3.111572 -1.954590
v 1.028320 -3.510254 -1.954590
v 0.385986 -4.819824 -3.253906
v 0.889893 -3.033691 -2.525146
v 1.476318 -2.447754 -2.525146
v 1.493408 0.000000 -1.141113
v 2.486572 0.000000 0.000000
v 3.602783 -0.876465 -2.513916
v 3.591553 -0.097656 -2.513916
v 4.457520 -2.118652 -4.372314
v 3.226074 0.506104 -2.513916
v 2.906982 0.044189 -3.084473
v 1.237793 2.156250 0.000000
v 0.743408 1.294922 -1.141113
v 2.525879 2.645752 -1.954590
v 2.182373 2.287598 -2.525146
v 3.980957 2.744141 -3.253906
v 1.381592 2.502441 -2.525146
v -0.216553 0.372803 4.697510
v -0.374023 0.214600 4.697510
v 0.000000 0.000000 5.621826
v 0.316650 1.193359 3.523193
v 0.870850 0.875244 3.523193
v 1.488770 0.000000 2.348633
v 1.289307 -0.744385 2.348633
v 1.106934 -1.917236 1.174316
v 0.000000 -2.213867 1.174316
v -1.243164 -2.153320 0.000000
v -2.153320 -1.243164 0.000000
v -3.542480 0.087402 -1.954590
v -2.486328 -0.006348 0.000000
v -3.554199 0.864502 -1.954590
v -1.493164 -0.003662 -1.141113
v -3.072266 0.746094 -2.525146
v -0.746826 -1.293457 -1.141113
v -2.857910 -0.054688 -2.525146
v -3.177002 -0.515137 -1.954590
v -4.367188 2.075439 -3.253906
v 0.214600 0.374023 4.697510
v -0.000977 0.431152 4.697510
v 0.000000 0.000000 5.621826
v 1.191895 0.322510 3.523193
v 1.193359 -0.316650 3.523193
v 0.744385 -1.289307 2.348633
v 0.000000 -1.488770 2.348633
v -1.106934 -1.917236 1.174316
v -1.917236 -1.106934 1.174316
v -2.153320 1.243164 0.000000
v -1.711182 3.159180 -2.513916
v -1.243164 2.153320 0.000000
v -1.042236 3.558350 -2.513916
v -0.746826 1.293457 -1.141113
v -0.904053 3.081787 -3.084473
v -1.491699 2.495361 -3.084473
v -2.051270 2.541016 -2.513916
v -0.394043 4.919678 -4.372314
v 0.000000 2.486572 0.000000
v 1.846924 3.024170 -1.954590
v -1.917236 1.106934 1.174316
v -2.213867 0.000000 1.174316
v -1.289307 -0.744385 2.348633
v -0.744385 -1.289307 2.348633
v 0.322510 -1.191895 3.523193
v 0.875244 -0.870850 3.523193
v 0.431152 0.000977 4.697510
v 0.372803 0.216553 4.697510
v 0.000000 0.000000 5.621826
v 0.000000 0.000000 5.621826
v 0.000000 0.000000 5.621826
v 0.374023 -0.214600 4.697510
v 0.000000 0.000000 5.621826
v -0.316650 -1.193359 3.523193
v -1.488770 0.000000 2.348633
v -1.106934 1.917236 1.174316
v 0.749756 -1.291260 -1.141113
v -1.415283 -2.539551 -3.084473
v -1.174805 -3.046875 -2.513916
v -4.063477 -2.801025 -4.372314
v -1.880127 -3.061523 -2.513916
v -2.560547 -2.681885 -2.513916
v -0.431152 -0.000977 4.697510
v 0.000000 0.000000 5.621826
v -0.322510 1.191895 3.523193
v 1.289307 0.744385 2.348633
v 1.917236 -1.106934 1.174316
v 2.153320 1.243164 0.000000
v 0.000000 2.213867 1.174316
v 1.106934 1.917236 1.174316
v -0.744385 1.289307 2.348633
v 0.216553 -0.372803 4.697510
v 0.000000 0.000000 5.621826
v -0.870850 -0.875244 3.523193
v -1.289307 0.744385 2.348633
v 0.000000 0.000000 5.621826
v 0.000000 -2.486572 0.000000
v 1.846924 3.024170 -1.954590
v 0.000000 2.486572 0.000000
v -1.106934 1.917236 1.174316
v 1.381592 2.502441 -2.525146
v 1.142334 3.008789 -1.954590
v 3.980957 2.744141 -3.253906
v 0.000977 -0.431152 4.697510
v 0.000000 0.000000 5.621826
v -1.191895 -0.322510 3.523193
v -2.217041 -2.323730 -3.084473
v 2.034668 -2.493652 -1.954590
v 3.120850 -0.758057 -3.084473
v 0.461182 -0.798584 -2.413086
v -0.461182 -0.798584 -2.413086
v 0.000000 0.000000 -6.786377
v 0.749756 -1.291260 -1.141113
v -0.461182 -0.798584 -2.413086
v -0.922119 0.000000 -2.413086
v 0.000000 0.000000 -6.786377
v -0.746826 -1.293457 -1.141113
v -0.922119 0.000000 -2.413086
v -0.461182 0.798584 -2.413086
v 0.000000 0.000000 -6.786377
v -1.493164 -0.003662 -1.141113
v -0.746826 1.293457 -1.141113
v -0.461182 0.798584 -2.413086
v 0.461182 0.798584 -2.413086
v 0.000000 0.000000 -6.786377
v -0.746826 1.293457 -1.141113
v 0.461182 0.798584 -2.413086
v 0.922119 0.000000 -2.413086
v 0.000000 0.000000 -6.786377
v 0.743408 1.294922 -1.141113
v -1.191895 -0.322510 3.523193
v -1.289307 0.744385 2.348633
v -0.214600 -0.374023 4.697510
v 0.000000 0.000000 5.621826
v 0.922119 0.000000 -2.413086
v 0.461182 -0.798584 -2.413086
v 0.000000 0.000000 -6.786377
v 1.493408 0.000000 -1.141113
v -0.746826 1.293457 -1.141113

vt 0.914001 0.866821
vt 0.997131 0.866821
vt 0.950745 0.993530
vt 0.914001 0.756592
vt 0.830933 0.756592
vt 0.830933 0.646362
vt 0.747864 0.646362
vt 0.747864 0.536133
vt 0.664734 0.536133
vt 0.664734 0.425964
vt 0.581665 0.425964
vt 0.663147 0.319336
vt 0.621643 0.319336
vt 0.661560 0.212769
vt 0.621643 0.156555
vt 0.704712 0.156555
vt 0.747864 0.100342
vt 0.747864 0.425964
vt 0.787781 0.319336
vt 0.829346 0.319336
vt 0.827759 0.212769
vt 0.870911 0.319336
vt 0.870911 0.156555
vt 0.914001 0.425964
vt 0.914001 0.100342
vt 0.954651 0.319336
vt 0.954651 0.156555
vt 0.995300 0.212769
vt 1.045532 0.157043
vt 0.664734 0.866821
vt 0.747864 0.866821
vt 0.705322 0.993530
vt 0.664734 0.756592
vt 0.581665 0.756592
vt 0.581665 0.646362
vt 0.498535 0.646362
vt 0.498535 0.536133
vt 0.415466 0.536133
vt 0.415466 0.425964
vt 0.332397 0.425964
vt 0.330811 0.319336
vt 0.249268 0.425964
vt 0.289246 0.319336
vt 0.249268 0.100342
vt 0.289246 0.156555
vt 0.415466 0.100342
vt 0.372314 0.156555
vt 0.372314 0.319336
vt 0.329224 0.212769
vt 0.498535 0.866821
vt 0.581665 0.866821
vt 0.536804 0.993530
vt 0.498535 0.756592
vt 0.415466 0.756592
vt 0.415466 0.646362
vt 0.332397 0.646362
vt 0.332397 0.536133
vt 0.249268 0.536133
vt 0.166199 0.425964
vt 0.164612 0.319397
vt 0.083008 0.426147
vt 0.123047 0.319519
vt 0.083069 0.100342
vt 0.123047 0.156555
vt 0.206177 0.156555
vt 0.206177 0.319397
vt 0.163025 0.212830
vt -0.000061 0.426147
vt -0.003113 0.319519
vt 0.083008 0.536438
vt 0.166199 0.536133
vt 0.166199 0.646362
vt 0.249268 0.646362
vt 0.249268 0.756592
vt 0.332397 0.756592
vt 0.332397 0.866821
vt 0.415466 0.866821
vt 0.375183 0.993530
vt 0.457214 0.993530
vt 0.619995 0.993530
vt 0.249268 0.866821
vt 0.291992 0.993530
vt 0.166199 0.756592
vt 0.083008 0.646667
vt -0.000122 0.536682
vt 0.581665 0.100342
vt 0.538513 0.156555
vt 0.538513 0.319336
vt 0.495422 0.212769
vt 0.497009 0.319336
vt 0.455444 0.319336
vt 0.830933 0.866821
vt 0.866333 0.993530
vt 0.747864 0.756592
vt 0.664734 0.646362
vt 0.581665 0.536133
vt 0.830933 0.425964
vt 0.914001 0.536133
vt 0.830933 0.536133
vt 0.914001 0.646362
vt 0.166199 0.866821
vt 0.208801 0.993530
vt 0.083008 0.756897
vt -0.000122 0.646912
vt 0.781982 0.993530
vt 0.498535 0.425964
vt 0.996216 0.319336
vt 0.997131 0.425964
vt 0.997131 0.536133
vt 0.038452 0.156616
vt 0.038452 0.319519
vt -0.006165 0.212891
vt 0.083008 0.867126
vt 0.122803 0.993530
vt -0.000122 0.757141
vt 0.455444 0.156555
vt 0.704712 0.319336
vt 0.787781 0.156555
vt 0.561584 0.075012
vt 0.436951 0.075012
vt 0.501343 -0.000916
vt 0.581665 0.100342
vt 0.394592 0.075012
vt 0.269958 0.075012
vt 0.332031 -0.000916
vt 0.415466 0.100342
vt 0.228882 0.075684
vt 0.104248 0.075684
vt 0.167603 0.001648
vt 0.249268 0.100342
vt 1.095703 0.101379
vt 1.072510 0.075806
vt 0.936218 0.075012
vt 1.002869 -0.000916
vt 1.095703 0.101379
vt 0.892822 0.075378
vt 0.768188 0.075378
vt 0.829163 0.000366
vt 0.914001 0.100342
vt 0.997131 0.756592
vt 0.997131 0.646362
vt -0.000122 0.867371
vt 0.044128 0.993530
vt 0.728577 0.075012
vt 0.603943 0.075012
vt 0.670898 -0.000916
vt 0.747864 0.100342
vt 0.083069 0.100342

vn -0.806814 -0.490167 0.329830
vn -0.453626 -0.827905 0.329844
vn 0.000000 0.000000 1.000000
vn -0.955251 0.226499 0.190245
vn -0.714042 0.673759 0.190244
vn -0.025085 0.927056 0.374082
vn 0.441837 0.815376 0.374088
vn 0.823303 0.515503 0.237549
vn 0.970731 0.034913 0.237617
vn 0.838376 -0.427733 0.337890
vn 0.354302 -0.845746 0.398978
vn 0.756958 -0.631958 0.166260
vn -0.401855 -0.670837 0.623290
vn -0.395620 -0.791666 -0.465564
vn -0.867290 0.286065 -0.407400
vn 0.235469 0.307428 -0.921978
vn -0.383850 -0.524536 -0.759948
vn 0.929459 -0.116335 0.350103
vn 0.461481 -0.724783 0.511590
vn 0.929571 0.328432 0.167420
vn 0.439887 -0.659434 -0.609628
vn 0.532834 0.804073 -0.263732
vn -0.309517 0.387338 -0.868429
vn 0.555306 0.729685 0.398992
vn 0.092898 -0.533155 -0.840902
vn 0.781877 -0.012635 0.623304
vn 0.185916 -0.894118 -0.407416
vn 0.883410 0.053222 -0.465569
vn -0.383965 0.050231 -0.921980
vn -0.490167 0.806814 0.329830
vn -0.827905 0.453626 0.329844
vn 0.000000 0.000000 1.000000
vn 0.226499 0.955251 0.190245
vn 0.673759 0.714042 0.190244
vn 0.927056 0.025085 0.374082
vn 0.815376 -0.441837 0.374088
vn 0.515503 -0.823303 0.237549
vn 0.034790 -0.970753 0.237546
vn -0.565447 -0.746789 0.350109
vn -0.789607 -0.512204 0.337888
vn -0.925781 -0.339539 0.166260
vn -0.909590 0.116026 0.398979
vn -0.380015 0.683429 0.623308
vn 0.415287 0.347049 -0.840889
vn 0.681376 0.608075 -0.407397
vn -0.262324 0.594715 -0.759934
vn 0.148498 -0.357603 -0.921992
vn -0.594196 -0.764916 -0.248665
vn -0.487785 0.738452 -0.465569
vn 0.453626 0.827905 0.329844
vn -0.021118 0.943801 0.329839
vn 0.000000 0.000000 1.000000
vn 0.940512 0.281500 0.190251
vn 0.955251 -0.226499 0.190245
vn 0.485222 -0.790332 0.374079
vn 0.025085 -0.927056 0.374082
vn -0.455130 -0.858138 0.237605
vn -0.823138 -0.515087 0.239019
vn -0.834766 0.437189 0.334712
vn -0.749187 0.640852 0.167415
vn -0.364011 0.863093 0.350095
vn 0.396903 0.762068 0.511586
vn 0.646183 -0.070130 -0.759953
vn 0.903475 -0.323476 -0.281241
vn -0.180726 -0.461733 -0.868413
vn -0.962763 0.059448 -0.263731
vn 0.351148 0.710657 -0.609641
vn -0.048766 0.939923 0.337884
vn 0.168828 0.971521 0.166264
vn -0.858086 0.455258 0.237547
vn -0.970753 -0.034790 0.237546
vn -0.790332 -0.485222 0.374079
vn -0.441837 -0.815376 0.374088
vn 0.281500 -0.940512 0.190251
vn 0.714042 -0.673759 0.190244
vn 0.943801 0.021118 0.329839
vn 0.806814 0.490167 0.329830
vn 0.000000 0.000000 1.000000
vn 0.000000 0.000000 1.000000
vn 0.000000 0.000000 1.000000
vn 0.827905 -0.453626 0.329844
vn 0.000000 0.000000 1.000000
vn -0.226499 -0.955251 0.190245
vn -0.927056 -0.025085 0.374082
vn -0.515611 0.823219 0.237603
vn -0.508189 0.186100 -0.840899
vn 0.490235 0.074402 -0.868409
vn 0.429939 -0.863479 -0.263737
vn -0.791001 -0.051208 -0.609669
vn -0.180361 -0.969247 0.167421
vn -0.858427 -0.037291 0.511578
vn -0.943801 -0.021118 0.329839
vn 0.000000 0.000000 1.000000
vn -0.281500 0.940512 0.190251
vn 0.790332 0.485222 0.374079
vn 0.857634 -0.455338 0.239022
vn 0.796006 0.504324 0.334711
vn -0.034485 0.970403 0.239015
vn 0.455258 0.858086 0.237547
vn -0.485222 0.790332 0.374079
vn 0.490167 -0.806814 0.329830
vn 0.000000 0.000000 1.000000
vn -0.673759 -0.714042 0.190244
vn -0.815376 0.441837 0.374088
vn 0.000000 0.000000 1.000000
vn 0.038757 -0.941522 0.334715
vn 0.168828 0.971521 0.166264
vn -0.048766 0.939923 0.337884
vn -0.515611 0.823219 0.237603
vn -0.383965 0.050231 -0.921980
vn -0.365359 0.897040 -0.248659
vn 0.883410 0.053222 -0.465569
vn 0.021118 -0.943801 0.329839
vn 0.000000 0.000000 1.000000
vn -0.940512 -0.281500 0.190251
vn -0.171573 0.944171 -0.281255
vn 0.959535 -0.132141 -0.248658
vn -0.731885 -0.620677 -0.281255
vn 0.473400 -0.820637 -0.320076
vn -0.473509 -0.820553 -0.320128
vn 0.000000 0.000000 -1.000000
vn 0.457338 -0.789248 -0.409791
vn -0.473509 -0.820553 -0.320128
vn -0.947394 0.000366 -0.320070
vn 0.000000 0.000000 -1.000000
vn -0.455336 -0.790368 -0.409863
vn -0.947394 0.000366 -0.320070
vn -0.473864 0.820351 -0.320121
vn 0.000000 0.000000 -1.000000
vn -0.912177 -0.001465 -0.409793
vn 0.646183 -0.070130 -0.759953
vn -0.473864 0.820351 -0.320121
vn 0.473992 0.820300 -0.320063
vn 0.000000 0.000000 -1.000000
vn -0.456782 0.789542 -0.409846
vn 0.473992 0.820300 -0.320063
vn 0.947375 0.000244 -0.320125
vn 0.000000 0.000000 -1.000000
vn 0.454828 0.790701 -0.409785
vn -0.940512 -0.281500 0.190251
vn -0.815376 0.441837 0.374088
vn -0.453626 -0.827905 0.329844
vn 0.000000 0.000000 1.000000
vn 0.947375 0.000244 -0.320125
vn 0.473400 -0.820637 -0.320076
vn 0.000000 0.000000 -1.000000
vn 0.912155 0.000854 -0.409844
vn -0.456782 0.789542 -0.409846

g polygon0
s 1
usemtl mat1
f 1/1/1 2/2/2 3/3/3
f 1/1/1 4/4/4 2/2/2
f 5/5/5 4/4/4 1/1/1
f 5/5/5 6/6/6 4/4/4
f 7/7/7 6/6/6 5/5/5
f 7/7/7 8/8/8 6/6/6
f 9/9/9 8/8/8 7/7/7
f 9/9/9 10/10/10 8/8/8
f 11/11/11 10/10/10 9/9/9
f 11/11/11 12/12/12 10/10/10
f 13/13/13 12/12/12 11/11/11
f 13/13/13 14/14/14 12/12/12
f 15/15/15 14/14/14 13/13/13
f 15/15/15 16/16/16 14/14/14
f 17/17/17 16/16/16 15/15/15
f 17/17/17 18/18/18 16/16/16
f 19/19/19 18/18/18 17/17/17
f 19/19/19 20/20/20 18/18/18
f 21/21/21 20/20/20 19/19/19
f 21/21/21 22/22/22 20/20/20
f 23/23/23 22/22/22 21/21/21
f 23/23/23 24/24/24 22/22/22
f 25/25/25 24/24/24 23/23/23
f 25/25/25 26/26/26 24/24/24
f 27/27/27 26/26/26 25/25/25
f 27/27/27 28/28/28 26/26/26
f 29/29/29 28/28/28 27/27/27
f 30/30/30 31/31/31 32/32/32
f 30/30/30 33/33/33 31/31/31
f 34/34/34 33/33/33 30/30/30
f 34/34/34 35/35/35 33/33/33
f 36/36/36 35/35/35 34/34/34
f 36/36/36 37/37/37 35/35/35
f 38/38/38 37/37/37 36/36/36
f 38/38/38 39/39/39 37/37/37
f 40/40/40 39/39/39 38/38/38
f 40/40/40 41/41/41 39/39/39
f 42/42/42 41/41/41 40/40/40
f 42/42/42 43/43/43 41/41/41
f 44/44/44 43/43/43 42/42/42
f 44/44/44 45/45/45 43/43/43
f 46/46/46 45/45/45 44/44/44
f 46/46/46 47/47/47 45/45/45
f 39/39/39 47/47/47 46/46/46
f 39/39/39 48/48/48 47/47/47
f 41/41/41 48/48/48 39/39/39
f 41/41/41 49/49/49 48/48/48
f 43/43/43 49/49/49 41/41/41
f 43/43/43 45/45/45 49/49/49
f 50/50/50 51/51/51 52/52/52
f 50/50/50 53/53/53 51/51/51
f 54/54/54 53/53/53 50/50/50
f 54/54/54 55/55/55 53/53/53
f 56/56/56 55/55/55 54/54/54
f 56/56/56 57/57/57 55/55/55
f 58/58/58 57/57/57 56/56/56
f 58/58/58 42/42/42 57/57/57
f 59/59/59 42/42/42 58/58/58
f 59/59/59 60/60/60 42/42/42
f 61/61/61 60/60/60 59/59/59
f 61/61/61 62/62/62 60/60/60
f 63/63/63 62/62/62 61/61/61
f 63/63/63 64/64/64 62/62/62
f 44/44/44 64/64/64 63/63/63
f 44/44/44 65/65/65 64/64/64
f 42/42/42 65/65/65 44/44/44
f 42/42/42 66/66/66 65/65/65
f 60/60/60 66/66/66 42/42/42
f 60/60/60 67/67/67 66/66/66
f 62/62/62 67/67/67 60/60/60
f 62/62/62 64/64/64 67/67/67
f 61/61/61 68/68/68 69/69/69
f 61/61/61 70/70/70 68/68/68
f 71/71/71 70/70/70 61/61/61
f 71/71/71 72/72/72 70/70/70
f 73/73/73 72/72/72 71/71/71
f 73/73/73 74/74/74 72/72/72
f 75/75/75 74/74/74 73/73/73
f 75/75/75 76/76/76 74/74/74
f 77/77/77 76/76/76 75/75/75
f 77/77/77 78/78/78 76/76/76
f 77/77/77 50/50/50 79/79/79
f 77/77/77 54/54/54 50/50/50
f 75/75/75 54/54/54 77/77/77
f 75/75/75 56/56/56 54/54/54
f 73/73/73 56/56/56 75/75/75
f 73/73/73 58/58/58 56/56/56
f 71/71/71 58/58/58 73/73/73
f 71/71/71 59/59/59 58/58/58
f 61/61/61 59/59/59 71/71/71
f 51/51/51 30/30/30 80/80/80
f 51/51/51 34/34/34 30/30/30
f 53/53/53 34/34/34 51/51/51
f 53/53/53 36/36/36 34/34/34
f 55/55/55 36/36/36 53/53/53
f 55/55/55 38/38/38 36/36/36
f 57/57/57 38/38/38 55/55/55
f 57/57/57 40/40/40 38/38/38
f 42/42/42 40/40/40 57/57/57
f 81/81/81 76/76/76 82/82/82
f 81/81/81 74/74/74 76/76/76
f 83/83/83 74/74/74 81/81/81
f 83/83/83 72/72/72 74/74/74
f 84/84/84 72/72/72 83/83/83
f 84/84/84 70/70/70 72/72/72
f 85/85/85 70/70/70 84/84/84
f 85/85/85 68/68/68 70/70/70
f 11/11/11 86/86/86 13/13/13
f 11/11/11 87/87/87 86/86/86
f 88/88/88 87/87/87 11/11/11
f 88/88/88 89/89/89 87/87/87
f 90/90/90 89/89/89 88/88/88
f 90/90/90 91/91/91 89/89/89
f 39/39/39 91/91/91 90/90/90
f 39/39/39 46/46/46 91/91/91
f 92/92/92 1/1/1 93/93/93
f 92/92/92 5/5/5 1/1/1
f 94/94/94 5/5/5 92/92/92
f 94/94/94 7/7/7 5/5/5
f 95/95/95 7/7/7 94/94/94
f 95/95/95 9/9/9 7/7/7
f 96/96/96 9/9/9 95/95/95
f 96/96/96 11/11/11 9/9/9
f 24/24/24 20/20/20 22/22/22
f 24/24/24 97/97/97 20/20/20
f 98/98/98 97/97/97 24/24/24
f 98/98/98 99/99/99 97/97/97
f 100/100/100 99/99/99 98/98/98
f 100/100/100 6/6/6 99/99/99
f 4/4/4 6/6/6 100/100/100
f 101/101/101 81/81/81 102/102/102
f 101/101/101 83/83/83 81/81/81
f 103/103/103 83/83/83 101/101/101
f 103/103/103 84/84/84 83/83/83
f 104/104/104 84/84/84 103/103/103
f 104/104/104 85/85/85 84/84/84
f 31/31/31 92/92/92 105/105/105
f 31/31/31 94/94/94 92/92/92
f 33/33/33 94/94/94 31/31/31
f 33/33/33 95/95/95 94/94/94
f 35/35/35 95/95/95 33/33/33
f 35/35/35 96/96/96 95/95/95
f 11/11/11 90/90/90 88/88/88
f 11/11/11 106/106/106 90/90/90
f 96/96/96 106/106/106 11/11/11
f 96/96/96 37/37/37 106/106/106
f 35/35/35 37/37/37 96/96/96
f 107/107/107 26/26/26 28/28/28
f 107/107/107 24/24/24 26/26/26
f 108/108/108 24/24/24 107/107/107
f 108/108/108 109/109/109 24/24/24
f 61/61/61 110/110/110 63/63/63
f 61/61/61 111/111/111 110/110/110
f 69/69/69 111/111/111 61/61/61
f 69/69/69 112/112/112 111/111/111
f 113/113/113 101/101/101 114/114/114
f 113/113/113 103/103/103 101/101/101
f 115/115/115 103/103/103 113/113/113
f 115/115/115 104/104/104 103/103/103
f 8/8/8 99/99/99 6/6/6
f 8/8/8 18/18/18 99/99/99
f 10/10/10 18/18/18 8/8/8
f 10/10/10 12/12/12 18/18/18
f 116/116/116 87/87/87 89/89/89
f 116/116/116 86/86/86 87/87/87
f 46/46/46 86/86/86 116/116/116
f 117/117/117 12/12/12 14/14/14
f 117/117/117 18/18/18 12/12/12
f 16/16/16 18/18/18 117/117/117
f 118/118/118 23/23/23 21/21/21
f 118/118/118 25/25/25 23/23/23
f 17/17/17 25/25/25 118/118/118
f 15/15/15 86/86/86 17/17/17
f 15/15/15 13/13/13 86/86/86
f 119/119/119 120/120/120 121/121/121
f 119/119/119 122/122/122 120/120/120
f 123/123/123 124/124/124 125/125/125
f 123/123/123 126/126/126 124/124/124
f 106/106/106 39/39/39 90/90/90
f 106/106/106 37/37/37 39/39/39
f 127/127/127 128/128/128 129/129/129
f 127/127/127 130/130/130 128/128/128
f 97/97/97 18/18/18 20/20/20
f 97/97/97 99/99/99 18/18/18
f 131/131/131 27/27/27 25/25/25
f 131/131/131 29/29/29 27/27/27
f 132/132/132 133/133/133 134/134/134
f 132/132/132 135/135/135 133/133/133
f 136/136/136 137/137/137 138/138/138
f 136/136/136 139/139/139 137/137/137
f 4/4/4 140/140/140 2/2/2
f 4/4/4 100/100/100 140/140/140
f 100/100/100 141/141/141 140/140/140
f 100/100/100 98/98/98 141/141/141
f 98/98/98 109/109/109 141/141/141
f 98/98/98 24/24/24 109/109/109
f 49/49/49 47/47/47 48/48/48
f 49/49/49 45/45/45 47/47/47
f 67/67/67 65/65/65 66/66/66
f 67/67/67 64/64/64 65/65/65
f 91/91/91 116/116/116 89/89/89
f 91/91/91 46/46/46 116/116/116
f 142/142/142 113/113/113 143/143/143
f 142/142/142 115/115/115 113/113/113
f 144/144/144 145/145/145 146/146/146
f 144/144/144 147/147/147 145/145/145
f 19/19/19 118/118/118 21/21/21
f 19/19/19 17/17/17 118/118/118
f 122/122/122 145/145/145 147/147/147
f 126/126/126 120/120/120 122/122/122
f 130/130/130 124/124/124 126/126/126
f 148/148/148 128/128/128 130/130/130
f 139/139/139 133/133/133 135/135/135
f 147/147/147 137/137/137 139/139/139
f 112/112/112 110/110/110 111/111/111
f 14/14/14 16/16/16 117/117/117

